<svg viewBox="0 0 200 200" xmlns="http://www.w3.org/2000/svg" role="img" aria-label="Pernil plate illustration">
  <circle cx="100" cy="104" r="86" fill="#000" opacity="0.06"/>
  <circle cx="100" cy="100" r="86" fill="#FFFBF3"/>
  <circle cx="100" cy="100" r="86" fill="none" stroke="#EADFC6" stroke-width="4"/>
  <circle cx="100" cy="100" r="72" fill="none" stroke="#F0E6D0" stroke-width="2"/>
  <!-- rice -->
  <g fill="#FBF4E3" stroke="#E7D9BC" stroke-width="1">
    <ellipse cx="72" cy="132" rx="6" ry="3" transform="rotate(20 72 132)"/>
    <ellipse cx="82" cy="140" rx="6" ry="3" transform="rotate(-15 82 140)"/>
    <ellipse cx="94" cy="144" rx="6" ry="3" transform="rotate(30 94 144)"/>
    <ellipse cx="66" cy="122" rx="6" ry="3" transform="rotate(-25 66 122)"/>
    <ellipse cx="80" cy="128" rx="6" ry="3" transform="rotate(10 80 128)"/>
    <ellipse cx="106" cy="138" rx="6" ry="3" transform="rotate(-20 106 138)"/>
  </g>
  <!-- black beans -->
  <g fill="#2C1D17">
    <ellipse cx="128" cy="128" rx="5" ry="3.4" transform="rotate(20 128 128)"/>
    <ellipse cx="138" cy="134" rx="5" ry="3.4" transform="rotate(-15 138 134)"/>
    <ellipse cx="122" cy="138" rx="5" ry="3.4" transform="rotate(40 122 138)"/>
    <ellipse cx="134" cy="142" rx="5" ry="3.4"/>
    <ellipse cx="146" cy="128" rx="5" ry="3.4" transform="rotate(-30 146 128)"/>
  </g>
  <!-- pulled pork mound -->
  <path d="M58 88 q42 -34 84 0 q6 14 -6 22 q-36 20 -72 0 q-12 -8 -6 -22 z" fill="#8A4A22"/>
  <g stroke="#B5763F" stroke-width="3.4" stroke-linecap="round" fill="none" opacity="0.95">
    <path d="M66 84 q30 -14 60 0"/>
    <path d="M64 94 q34 -10 68 0"/>
    <path d="M68 104 q30 8 60 0"/>
    <path d="M74 78 q24 -8 48 2"/>
  </g>
  <g stroke="#6E3717" stroke-width="2.4" stroke-linecap="round" fill="none" opacity="0.8">
    <path d="M72 88 q28 -8 56 2"/>
    <path d="M70 99 q30 4 60 -2"/>
  </g>
  <!-- crackling bits -->
  <g fill="#C98A4B"><circle cx="86" cy="86" r="2.4"/><circle cx="110" cy="92" r="2.2"/><circle cx="98" cy="82" r="2"/></g>
  <!-- plantain -->
  <g fill="#E7A93A" stroke="#C8862A" stroke-width="1.4">
    <ellipse cx="70" cy="72" rx="11" ry="7" transform="rotate(-24 70 72)"/>
    <ellipse cx="58" cy="84" rx="11" ry="7" transform="rotate(-8 58 84)"/>
  </g>
  <!-- lime wedge -->
  <path d="M140 76 a16 16 0 0 1 14 12 l-16 5 z" fill="#7FA23C"/>
  <path d="M141 80 a11 11 0 0 1 9 8 l-10 3 z" fill="#B9CE6B"/>
  <!-- cilantro -->
  <g fill="#5E7A2E"><circle cx="100" cy="66" r="3"/><circle cx="108" cy="70" r="2.4"/><circle cx="94" cy="72" r="2.2"/></g>
</svg>
