<svg width="64" height="64" viewBox="0 0 64 64" xmlns="http://www.w3.org/2000/svg">
  <defs>
    <linearGradient id="pg" x1="0" y1="0" x2="0" y2="1">
      <stop offset="0" stop-color="#E9A63B"/>
      <stop offset="1" stop-color="#C4571E"/>
    </linearGradient>
  </defs>
  <rect width="64" height="64" rx="16" fill="#B23A24"/>
  <g stroke="#F7EEDD" stroke-width="2.6" stroke-linecap="round" fill="none" opacity="0.9">
    <path d="M24 20 q-4 -6 0 -12"/>
    <path d="M32 19 q-4 -6 0 -12"/>
    <path d="M40 20 q4 -6 0 -12"/>
  </g>
  <path d="M16 30 h32 a3 3 0 0 1 3 3 v4 a19 16 0 0 1 -38 0 v-4 a3 3 0 0 1 3 -3 z" fill="url(#pg)"/>
  <rect x="13" y="28" width="38" height="5" rx="2.5" fill="#F7EEDD"/>
  <path d="M32 40 c-3 -3.5 -8 -2.8 -8 2 c0 3.4 5 6 8 8 c3 -2 8 -4.6 8 -8 c0 -4.8 -5 -5.5 -8 -2 z" fill="#F7EEDD"/>
</svg>
